<?xml version="1.0" encoding="UTF-8" standalone="no"?>
<!DOCTYPE svg PUBLIC "-//W3C//DTD SVG 1.1//EN" "http://www.w3.org/Graphics/SVG/1.1/DTD/svg11.dtd">
<svg xmlns="http://www.w3.org/2000/svg" version="1.1" viewBox="0.00 0.00 212.00 252.00">
<defs>

</defs>
<g>
<path fill="#ffffff" d="
  M 128.65 92.67
  Q 150.29 66.19 182.47 26.22
  Q 185.23 22.79 186.45 19.51
  A 0.95 0.95 0.0 0 0 185.24 18.28
  C 182.60 19.21 179.42 22.20 176.29 25.29
  Q 151.97 49.37 147.34 53.95
  A 0.72 0.72 0.0 0 1 146.48 54.06
  Q 127.89 43.62 106.83 46.27
  A 0.53 0.53 0.0 0 1 106.25 45.87
  L 100.41 22.09
  A 0.33 0.33 0.0 0 1 100.71 21.69
  Q 123.15 20.59 143.62 28.57
  Q 148.05 30.30 150.13 30.34
  Q 153.88 30.42 156.56 28.47
  Q 170.33 18.46 183.99 8.26
  C 187.07 5.96 195.68 0.29 199.51 2.69
  C 203.39 5.13 200.28 11.56 198.20 14.47
  Q 191.36 24.05 175.99 44.45
  A 3.34 3.34 0.0 0 0 176.36 48.88
  C 181.14 53.43 185.78 58.34 189.46 63.39
  C 219.75 105.01 216.33 161.07 179.97 198.25
  C 151.51 227.35 108.66 236.86 70.14 222.85
  Q 64.94 220.96 63.09 221.05
  C 59.17 221.24 57.53 221.46 53.95 224.11
  C 37.96 235.95 29.42 242.71 21.76 247.51
  Q 17.47 250.19 12.54 249.98
  C 10.87 249.91 9.61 248.18 9.58 246.72
  C 9.51 242.42 12.47 238.05 14.99 234.60
  Q 35.22 207.07 35.78 206.27
  C 37.47 203.86 36.79 202.85 34.80 200.98
  Q 17.81 184.93 9.38 163.54
  A 0.64 0.64 0.0 0 1 9.69 162.74
  L 64.63 135.43
  A 0.62 0.61 -28.6 0 1 65.43 135.66
  Q 71.32 145.38 79.67 152.23
  A 0.62 0.61 -50.7 0 0 80.53 152.14
  L 107.15 119.28
  A 0.66 0.64 -48.7 0 0 107.10 118.40
  Q 98.87 110.49 101.86 100.34
  C 105.18 89.07 118.84 86.46 127.72 92.80
  A 0.69 0.68 -52.6 0 0 128.65 92.67
  Z
  M 112.87 123.08
  A 0.48 0.48 0.0 0 0 112.20 123.15
  Q 104.00 133.32 32.18 221.92
  Q 28.30 226.71 26.32 231.18
  A 0.86 0.86 0.0 0 0 27.39 232.34
  C 30.34 231.31 33.47 228.23 35.62 226.12
  Q 45.30 216.67 60.27 201.70
  A 0.47 0.46 35.5 0 1 60.82 201.61
  Q 77.08 210.08 94.25 206.67
  C 125.59 200.45 140.05 166.37 125.56 138.67
  Q 120.79 129.54 112.87 123.08
  Z"
/>
<path fill="#faff4e" d="
  M 43.67 42.91
  A 0.43 0.43 0.0 0 1 43.69 42.23
  Q 65.11 26.51 90.48 22.71
  Q 92.68 22.38 93.92 22.35
  A 0.66 0.66 0.0 0 1 94.57 22.85
  L 100.51 47.06
  A 0.49 0.48 -14.0 0 1 100.16 47.64
  Q 83.38 51.97 71.48 64.77
  A 0.56 0.56 0.0 0 1 70.72 64.82
  L 43.67 42.91
  Z"
/>
<path fill="#faff4e" d="
  M 39.17 46.80
  L 67.31 69.61
  A 0.26 0.25 -52.4 0 1 67.35 69.96
  Q 58.45 82.43 56.90 97.60
  A 0.62 0.62 0.0 0 1 56.23 98.15
  L 7.11 94.48
  A 0.23 0.23 0.0 0 1 6.91 94.18
  Q 15.62 66.68 37.98 46.83
  A 0.92 0.92 0.0 0 1 39.17 46.80
  Z"
/>
<path fill="#faff4e" d="
  M 61.84 130.29
  L 7.70 157.20
  A 0.49 0.49 0.0 0 1 7.01 156.91
  Q -1.57 129.44 4.97 100.99
  A 0.94 0.94 0.0 0 1 5.96 100.26
  L 55.87 103.99
  A 0.73 0.73 0.0 0 1 56.50 104.45
  Q 56.51 104.46 56.74 108.25
  Q 57.40 118.81 62.15 129.44
  A 0.65 0.64 65.3 0 1 61.84 130.29
  Z"
/>
</g>
<filter id="glow" x="-50%" y="-50%" width="200%" height="200%">
  <feGaussianBlur stdDeviation="4" result="coloredBlur"/>
  <feMerge>
    <feMergeNode in="coloredBlur"/>
    <feMergeNode in="SourceGraphic"/>
  </feMerge>
</filter>
</svg>
