<?xml version="1.0" encoding="UTF-8" standalone="no"?>
<!DOCTYPE svg PUBLIC "-//W3C//DTD SVG 1.1//EN" "http://www.w3.org/Graphics/SVG/1.1/DTD/svg11.dtd">
<svg xmlns="http://www.w3.org/2000/svg" version="1.1" viewBox="0.00 0.00 256.00 256.00">
<g stroke-width="2.00" fill="none" stroke-linecap="butt">
<path stroke="#161616" vector-effect="non-scaling-stroke" d="
  M 256.00 168.89
  Q 254.94 163.39 253.67 157.95
  C 251.04 146.63 244.64 138.71 232.37 138.07
  Q 222.93 137.58 213.49 139.27"
/>
<path stroke="#878686" vector-effect="non-scaling-stroke" d="
  M 213.49 139.27
  Q 217.51 106.00 198.82 79.44
  C 195.17 74.26 190.40 69.26 186.81 65.28
  Q 184.17 62.35 186.04 59.81
  Q 192.11 51.61 204.65 33.14
  Q 206.16 30.93 206.81 28.53
  A 2.78 2.78 0.0 0 0 205.48 25.37
  Q 204.66 24.91 203.24 25.46
  Q 198.11 27.46 193.01 31.27
  Q 191.99 32.04 176.42 43.68
  C 171.25 47.54 167.27 50.61 161.72 48.27
  Q 144.34 40.95 124.76 41.62
  A 0.53 0.53 0.0 0 0 124.26 42.29
  L 128.69 59.35
  A 0.64 0.64 0.0 0 0 129.36 59.83
  Q 136.27 59.31 143.02 60.30
  C 150.60 61.41 155.76 62.37 161.85 66.29
  A 1.07 1.06 28.7 0 0 163.40 65.84
  Q 163.57 65.45 163.76 65.27
  Q 189.43 41.10 189.77 40.78
  Q 192.09 38.64 194.48 38.19
  A 0.92 0.92 0.0 0 1 195.50 39.43
  Q 194.74 41.36 193.51 43.01
  Q 189.57 48.30 186.32 52.32
  Q 164.52 79.27 147.09 101.08
  A 0.93 0.92 -53.9 0 1 145.86 101.28
  Q 142.81 99.26 139.05 98.47
  C 125.23 95.55 118.42 114.52 129.12 122.46
  A 0.59 0.59 0.0 0 1 129.23 123.31
  L 106.03 151.64"
/>
<path stroke="#7e7d7b" vector-effect="non-scaling-stroke" d="
  M 106.03 151.64
  C 101.08 148.37 95.73 143.64 93.99 137.85
  A 1.05 1.05 0.0 0 0 92.51 137.22
  L 55.78 155.89"
/>
<path stroke="#161616" vector-effect="non-scaling-stroke" d="
  M 55.78 155.89
  Q 53.61 153.21 49.33 153.33"
/>
<path stroke="#7a4913" vector-effect="non-scaling-stroke" d="
  M 49.33 153.33
  L 90.55 132.51
  A 0.55 0.55 0.0 0 0 90.79 131.78
  Q 86.11 122.37 85.94 112.08"
/>
<path stroke="#8b856b" vector-effect="non-scaling-stroke" d="
  M 85.94 112.08
  Q 86.18 110.16 85.00 110.08
  Q 65.12 108.59 45.64 106.97
  A 0.88 0.87 -81.2 0 0 44.72 107.65
  Q 41.09 124.01 43.08 139.79"
/>
<path stroke="#161616" vector-effect="non-scaling-stroke" d="
  M 43.08 139.79
  Q 33.01 135.45 22.34 134.89
  C 14.13 134.47 6.42 136.01 3.11 144.54
  C 0.30 151.77 0.40 159.76 0.00 167.32"
/>
<path stroke="#88761b" vector-effect="non-scaling-stroke" d="
  M 77.72 59.80
  L 97.73 75.79
  A 0.68 0.67 41.1 0 0 98.65 75.73
  Q 108.71 65.30 122.89 61.49
  A 0.48 0.48 0.0 0 0 123.23 60.91
  L 118.33 42.40"
/>
<path stroke="#8b856b" vector-effect="non-scaling-stroke" d="
  M 118.33 42.40
  Q 95.87 45.04 77.20 58.62
  A 0.57 0.56 52.4 0 0 77.10 59.44
  Q 77.27 59.65 77.72 59.80"
/>
<path stroke="#fae26d" vector-effect="non-scaling-stroke" d="
  M 118.33 42.40
  Q 118.60 43.90 117.25 44.08
  Q 112.00 44.78 105.37 46.46
  C 101.59 47.42 96.82 49.48 92.24 51.47
  Q 85.89 54.23 78.68 59.41
  Q 78.35 59.65 77.72 59.80"
/>
<path stroke="#856a1d" vector-effect="non-scaling-stroke" d="
  M 47.37 98.95
  L 46.64 101.24
  A 0.51 0.51 0.0 0 0 47.02 101.89
  Q 48.63 102.23 49.74 101.98
  A 2.16 2.04 44.1 0 1 50.71 101.99
  Q 53.93 102.78 57.39 102.86
  Q 62.44 102.97 64.10 103.19
  Q 65.78 103.40 82.20 104.74
  C 82.92 104.80 84.43 105.19 85.31 105.56
  A 0.59 0.59 0.0 0 0 86.13 105.07
  Q 87.41 92.28 94.44 81.73"
/>
<path stroke="#8b856b" vector-effect="non-scaling-stroke" d="
  M 94.44 81.73
  Q 95.36 81.15 95.18 80.70
  Q 94.93 80.07 94.38 79.63
  Q 83.59 71.08 73.08 62.41
  A 0.44 0.44 0.0 0 0 72.51 62.42
  Q 55.35 77.57 47.37 98.95"
/>
<path stroke="#f7d66f" vector-effect="non-scaling-stroke" d="
  M 94.44 81.73
  L 74.19 65.26
  A 1.62 1.62 0.0 0 0 72.09 65.31
  Q 59.79 76.17 52.06 91.34
  Q 50.94 93.55 48.47 99.15
  A 0.45 0.44 -79.7 0 1 48.10 99.41
  Q 47.53 99.47 47.37 98.95"
/>
<path stroke="#848383" vector-effect="non-scaling-stroke" d="
  M 213.49 139.27
  L 211.59 148.76"
/>
<path stroke="#eceae8" vector-effect="non-scaling-stroke" d="
  M 211.59 148.76
  Q 203.53 149.50 191.21 149.96
  Q 167.46 150.87 146.52 140.66"
/>
<path stroke="#848383" vector-effect="non-scaling-stroke" d="
  M 146.52 140.66
  Q 142.35 132.07 135.15 125.91
  A 1.31 1.30 -49.6 0 0 133.30 126.06
  L 125.30 135.59"
/>
<path stroke="#eceae8" vector-effect="non-scaling-stroke" d="
  M 125.30 135.59
  Q 121.96 138.81 118.97 142.34
  Q 117.10 144.53 115.05 146.15
  Q 112.88 147.86 110.76 149.63
  Q 108.61 151.41 106.03 151.64"
/>
<path stroke="#ecb565" vector-effect="non-scaling-stroke" d="
  M 85.94 112.08
  Q 67.47 110.77 49.13 109.34
  Q 48.43 109.29 47.55 108.94
  Q 46.60 108.57 45.96 109.55
  A 1.26 1.24 -24.6 0 0 45.77 110.05
  C 45.38 113.14 44.44 116.49 44.24 119.60
  Q 43.71 127.60 43.99 138.51
  A 3.13 2.73 -57.8 0 0 44.11 139.28
  Q 44.68 141.11 44.89 144.51
  Q 45.15 148.77 47.69 154.05"
/>
<path stroke="#888268" vector-effect="non-scaling-stroke" d="
  M 47.69 154.05
  Q 46.47 155.19 45.55 151.94
  Q 43.83 145.87 43.08 139.79"
/>
<path stroke="#774610" vector-effect="non-scaling-stroke" d="
  M 49.33 153.33
  Q 48.72 153.33 47.69 154.05"
/>
<path stroke="#7b7a78" vector-effect="non-scaling-stroke" d="
  M 146.52 140.66
  C 155.74 161.21 148.56 184.63 128.04 194.48"
/>
<path stroke="#6f6d6a" vector-effect="non-scaling-stroke" d="
  M 128.04 194.48
  Q 108.55 202.83 89.99 192.95
  A 0.86 0.85 -59.3 0 0 88.87 193.24
  Q 87.78 194.92 87.09 195.59
  Q 79.50 202.90 72.49 210.17
  Q 69.87 212.89 67.48 214.78
  Q 64.86 216.85 61.86 218.60
  A 1.11 1.11 0.0 0 1 60.43 216.95
  L 72.60 201.74"
/>
<path stroke="#7b7a78" vector-effect="non-scaling-stroke" d="
  M 72.60 201.74
  L 125.30 135.59"
/>
<path stroke="#7b7a78" vector-effect="non-scaling-stroke" d="
  M 55.78 155.89
  L 49.21 159.22
  A 0.76 0.75 -27.4 0 0 48.88 160.24
  Q 50.27 162.91 52.63 167.88
  C 55.07 172.99 58.79 178.31 62.87 182.79
  Q 69.34 189.89 71.55 192.13
  A 2.20 2.20 0.0 0 1 71.76 194.95
  Q 65.13 204.23 53.97 219.22
  Q 50.21 224.27 48.15 229.79"
/>
<path stroke="#6f6d6a" vector-effect="non-scaling-stroke" d="
  M 48.15 229.79
  Q 48.64 231.00 49.44 230.85
  Q 50.03 230.73 50.11 230.73
  Q 55.12 230.63 58.74 228.44
  Q 63.12 225.80 77.83 214.37
  Q 78.12 214.15 78.68 214.05
  A 0.49 0.49 0.0 0 0 78.97 213.91
  L 84.50 208.52
  A 1.37 0.99 -2.2 0 1 84.73 208.34
  L 88.13 206.50
  A 1.97 1.86 -55.8 0 1 89.18 206.27
  L 95.61 206.72
  A 0.09 0.09 0.0 0 1 95.68 206.85
  Q 95.60 206.97 95.46 206.94
  A 0.13 0.07 40.6 0 0 95.53 207.13
  Q 95.70 207.16 95.84 207.17"
/>
<path stroke="#6f6d6a" vector-effect="non-scaling-stroke" d="
  M 134.68 213.36
  Q 161.47 211.64 182.19 194.16"
/>
<path stroke="#7b7a78" vector-effect="non-scaling-stroke" d="
  M 182.19 194.16
  Q 195.83 182.96 204.33 167.83
  Q 209.13 159.28 211.59 148.76"
/>
<path stroke="#d7d3cf" vector-effect="non-scaling-stroke" d="
  M 72.60 201.74
  Q 66.99 205.49 65.40 207.93
  Q 61.56 213.85 56.36 218.67
  A 3.29 3.23 -5.8 0 0 55.78 219.37
  C 53.18 223.41 50.68 226.26 49.84 229.65
  A 0.59 0.59 0.0 0 1 49.10 230.07
  L 48.15 229.79"
/>
<path stroke="#d7d3cf" vector-effect="non-scaling-stroke" d="
  M 182.19 194.16
  Q 164.25 196.63 150.95 195.72
  Q 133.73 194.54 128.04 194.48"
/>
</g>
<g>
<path fill="#191919" d="
  M 256.00 0.00
  L 256.00 168.89
  Q 254.94 163.39 253.67 157.95
  C 251.04 146.63 244.64 138.71 232.37 138.07
  Q 222.93 137.58 213.49 139.27
  Q 217.51 106.00 198.82 79.44
  C 195.17 74.26 190.40 69.26 186.81 65.28
  Q 184.17 62.35 186.04 59.81
  Q 192.11 51.61 204.65 33.14
  Q 206.16 30.93 206.81 28.53
  A 2.78 2.78 0.0 0 0 205.48 25.37
  Q 204.66 24.91 203.24 25.46
  Q 198.11 27.46 193.01 31.27
  Q 191.99 32.04 176.42 43.68
  C 171.25 47.54 167.27 50.61 161.72 48.27
  Q 144.34 40.95 124.76 41.62
  A 0.53 0.53 0.0 0 0 124.26 42.29
  L 128.69 59.35
  A 0.64 0.64 0.0 0 0 129.36 59.83
  Q 136.27 59.31 143.02 60.30
  C 150.60 61.41 155.76 62.37 161.85 66.29
  A 1.07 1.06 28.7 0 0 163.40 65.84
  Q 163.57 65.45 163.76 65.27
  Q 189.43 41.10 189.77 40.78
  Q 192.09 38.64 194.48 38.19
  A 0.92 0.92 0.0 0 1 195.50 39.43
  Q 194.74 41.36 193.51 43.01
  Q 189.57 48.30 186.32 52.32
  Q 164.52 79.27 147.09 101.08
  A 0.93 0.92 -53.9 0 1 145.86 101.28
  Q 142.81 99.26 139.05 98.47
  C 125.23 95.55 118.42 114.52 129.12 122.46
  A 0.59 0.59 0.0 0 1 129.23 123.31
  L 106.03 151.64
  C 101.08 148.37 95.73 143.64 93.99 137.85
  A 1.05 1.05 0.0 0 0 92.51 137.22
  L 55.78 155.89
  Q 53.61 153.21 49.33 153.33
  L 90.55 132.51
  A 0.55 0.55 0.0 0 0 90.79 131.78
  Q 86.11 122.37 85.94 112.08
  Q 86.18 110.16 85.00 110.08
  Q 65.12 108.59 45.64 106.97
  A 0.88 0.87 -81.2 0 0 44.72 107.65
  Q 41.09 124.01 43.08 139.79
  Q 33.01 135.45 22.34 134.89
  C 14.13 134.47 6.42 136.01 3.11 144.54
  C 0.30 151.77 0.40 159.76 0.00 167.32
  L 0.00 0.00
  L 256.00 0.00
  Z
  M 77.72 59.80
  L 97.73 75.79
  A 0.68 0.67 41.1 0 0 98.65 75.73
  Q 108.71 65.30 122.89 61.49
  A 0.48 0.48 0.0 0 0 123.23 60.91
  L 118.33 42.40
  Q 95.87 45.04 77.20 58.62
  A 0.57 0.56 52.4 0 0 77.10 59.44
  Q 77.27 59.65 77.72 59.80
  Z
  M 47.37 98.95
  L 46.64 101.24
  A 0.51 0.51 0.0 0 0 47.02 101.89
  Q 48.63 102.23 49.74 101.98
  A 2.16 2.04 44.1 0 1 50.71 101.99
  Q 53.93 102.78 57.39 102.86
  Q 62.44 102.97 64.10 103.19
  Q 65.78 103.40 82.20 104.74
  C 82.92 104.80 84.43 105.19 85.31 105.56
  A 0.59 0.59 0.0 0 0 86.13 105.07
  Q 87.41 92.28 94.44 81.73
  Q 95.36 81.15 95.18 80.70
  Q 94.93 80.07 94.38 79.63
  Q 83.59 71.08 73.08 62.41
  A 0.44 0.44 0.0 0 0 72.51 62.42
  Q 55.35 77.57 47.37 98.95
  Z"
/>
<path fill="#f4f3f2" d="
  M 213.49 139.27
  L 211.59 148.76
  Q 203.53 149.50 191.21 149.96
  Q 167.46 150.87 146.52 140.66
  Q 142.35 132.07 135.15 125.91
  A 1.31 1.30 -49.6 0 0 133.30 126.06
  L 125.30 135.59
  Q 121.96 138.81 118.97 142.34
  Q 117.10 144.53 115.05 146.15
  Q 112.88 147.86 110.76 149.63
  Q 108.61 151.41 106.03 151.64
  L 129.23 123.31
  A 0.59 0.59 0.0 0 0 129.12 122.46
  C 118.42 114.52 125.23 95.55 139.05 98.47
  Q 142.81 99.26 145.86 101.28
  A 0.93 0.92 -53.9 0 0 147.09 101.08
  Q 164.52 79.27 186.32 52.32
  Q 189.57 48.30 193.51 43.01
  Q 194.74 41.36 195.50 39.43
  A 0.92 0.92 0.0 0 0 194.48 38.19
  Q 192.09 38.64 189.77 40.78
  Q 189.43 41.10 163.76 65.27
  Q 163.57 65.45 163.40 65.84
  A 1.07 1.06 28.7 0 1 161.85 66.29
  C 155.76 62.37 150.60 61.41 143.02 60.30
  Q 136.27 59.31 129.36 59.83
  A 0.64 0.64 0.0 0 1 128.69 59.35
  L 124.26 42.29
  A 0.53 0.53 0.0 0 1 124.76 41.62
  Q 144.34 40.95 161.72 48.27
  C 167.27 50.61 171.25 47.54 176.42 43.68
  Q 191.99 32.04 193.01 31.27
  Q 198.11 27.46 203.24 25.46
  Q 204.66 24.91 205.48 25.37
  A 2.78 2.78 0.0 0 1 206.81 28.53
  Q 206.16 30.93 204.65 33.14
  Q 192.11 51.61 186.04 59.81
  Q 184.17 62.35 186.81 65.28
  C 190.40 69.26 195.17 74.26 198.82 79.44
  Q 217.51 106.00 213.49 139.27
  Z"
/>
<path fill="#fcf1bd" d="
  M 85.94 112.08
  Q 67.47 110.77 49.13 109.34
  Q 48.43 109.29 47.55 108.94
  Q 46.60 108.57 45.96 109.55
  A 1.26 1.24 -24.6 0 0 45.77 110.05
  C 45.38 113.14 44.44 116.49 44.24 119.60
  Q 43.71 127.60 43.99 138.51
  A 3.13 2.73 -57.8 0 0 44.11 139.28
  Q 44.68 141.11 44.89 144.51
  Q 45.15 148.77 47.69 154.05
  Q 46.47 155.19 45.55 151.94
  Q 43.83 145.87 43.08 139.79
  Q 41.09 124.01 44.72 107.65
  A 0.88 0.87 -81.2 0 1 45.64 106.97
  Q 65.12 108.59 85.00 110.08
  Q 86.18 110.16 85.94 112.08
  Z"
/>
<path fill="#db790d" d="
  M 85.94 112.08
  Q 86.11 122.37 90.79 131.78
  A 0.55 0.55 0.0 0 1 90.55 132.51
  L 49.33 153.33
  Q 48.72 153.33 47.69 154.05
  Q 45.15 148.77 44.89 144.51
  Q 44.68 141.11 44.11 139.28
  A 3.13 2.73 -57.8 0 1 43.99 138.51
  Q 43.71 127.60 44.24 119.60
  C 44.44 116.49 45.38 113.14 45.77 110.05
  A 1.26 1.24 -24.6 0 1 45.96 109.55
  Q 46.60 108.57 47.55 108.94
  Q 48.43 109.29 49.13 109.34
  Q 67.47 110.77 85.94 112.08
  Z"
/>
<path fill="#131313" d="
  M 146.52 140.66
  C 155.74 161.21 148.56 184.63 128.04 194.48
  Q 108.55 202.83 89.99 192.95
  A 0.86 0.85 -59.3 0 0 88.87 193.24
  Q 87.78 194.92 87.09 195.59
  Q 79.50 202.90 72.49 210.17
  Q 69.87 212.89 67.48 214.78
  Q 64.86 216.85 61.86 218.60
  A 1.11 1.11 0.0 0 1 60.43 216.95
  L 72.60 201.74
  L 125.30 135.59
  L 133.30 126.06
  A 1.31 1.30 -49.6 0 1 135.15 125.91
  Q 142.35 132.07 146.52 140.66
  Z"
/>
<path fill="#131313" d="
  M 43.08 139.79
  Q 43.83 145.87 45.55 151.94
  Q 46.47 155.19 47.69 154.05
  Q 48.72 153.33 49.33 153.33
  Q 53.61 153.21 55.78 155.89
  L 49.21 159.22
  A 0.76 0.75 -27.4 0 0 48.88 160.24
  Q 50.27 162.91 52.63 167.88
  C 55.07 172.99 58.79 178.31 62.87 182.79
  Q 69.34 189.89 71.55 192.13
  A 2.20 2.20 0.0 0 1 71.76 194.95
  Q 65.13 204.23 53.97 219.22
  Q 50.21 224.27 48.15 229.79
  Q 48.64 231.00 49.44 230.85
  Q 50.03 230.73 50.11 230.73
  Q 55.12 230.63 58.74 228.44
  Q 63.12 225.80 77.83 214.37
  Q 78.12 214.15 78.68 214.05
  A 0.49 0.49 0.0 0 0 78.97 213.91
  L 84.50 208.52
  A 1.37 0.99 -2.2 0 1 84.73 208.34
  L 88.13 206.50
  A 1.97 1.86 -55.8 0 1 89.18 206.27
  L 95.61 206.72
  A 0.09 0.09 0.0 0 1 95.68 206.85
  Q 95.60 206.97 95.46 206.94
  A 0.13 0.07 40.6 0 0 95.53 207.13
  Q 95.70 207.16 95.84 207.17
  Q 96.60 207.98 97.59 208.40
  Q 103.83 211.04 110.52 212.14
  Q 113.16 212.58 119.28 213.62
  Q 126.69 214.88 134.68 213.36
  Q 161.47 211.64 182.19 194.16
  Q 195.83 182.96 204.33 167.83
  Q 209.13 159.28 211.59 148.76
  L 213.49 139.27
  Q 222.93 137.58 232.37 138.07
  C 244.64 138.71 251.04 146.63 253.67 157.95
  Q 254.94 163.39 256.00 168.89
  L 256.00 256.00
  L 0.00 256.00
  L 0.00 167.32
  C 0.40 159.76 0.30 151.77 3.11 144.54
  C 6.42 136.01 14.13 134.47 22.34 134.89
  Q 33.01 135.45 43.08 139.79
  Z"
/>
<path fill="#e3e0dd" d="
  M 125.30 135.59
  L 72.60 201.74
  Q 66.99 205.49 65.40 207.93
  Q 61.56 213.85 56.36 218.67
  A 3.29 3.23 -5.8 0 0 55.78 219.37
  C 53.18 223.41 50.68 226.26 49.84 229.65
  A 0.59 0.59 0.0 0 1 49.10 230.07
  L 48.15 229.79
  Q 50.21 224.27 53.97 219.22
  Q 65.13 204.23 71.76 194.95
  A 2.20 2.20 0.0 0 0 71.55 192.13
  Q 69.34 189.89 62.87 182.79
  C 58.79 178.31 55.07 172.99 52.63 167.88
  Q 50.27 162.91 48.88 160.24
  A 0.76 0.75 -27.4 0 1 49.21 159.22
  L 55.78 155.89
  L 92.51 137.22
  A 1.05 1.05 0.0 0 1 93.99 137.85
  C 95.73 143.64 101.08 148.37 106.03 151.64
  Q 108.61 151.41 110.76 149.63
  Q 112.88 147.86 115.05 146.15
  Q 117.10 144.53 118.97 142.34
  Q 121.96 138.81 125.30 135.59
  Z"
/>
<path fill="#e3e0dd" d="
  M 211.59 148.76
  Q 209.13 159.28 204.33 167.83
  Q 195.83 182.96 182.19 194.16
  Q 164.25 196.63 150.95 195.72
  Q 133.73 194.54 128.04 194.48
  C 148.56 184.63 155.74 161.21 146.52 140.66
  Q 167.46 150.87 191.21 149.96
  Q 203.53 149.50 211.59 148.76
  Z"
/>
<path fill="#cbc6c0" d="
  M 182.19 194.16
  Q 161.47 211.64 134.68 213.36
  Q 127.66 213.10 120.75 213.03
  Q 113.86 212.97 102.78 209.21
  Q 99.39 208.07 95.84 207.17
  Q 95.70 207.16 95.53 207.13
  A 0.13 0.07 40.6 0 1 95.46 206.94
  Q 95.60 206.97 95.68 206.85
  A 0.09 0.09 0.0 0 0 95.61 206.72
  L 89.18 206.27
  A 1.97 1.86 -55.8 0 0 88.13 206.50
  L 84.73 208.34
  A 1.37 0.99 -2.2 0 0 84.50 208.52
  L 78.97 213.91
  A 0.49 0.49 0.0 0 1 78.68 214.05
  Q 78.12 214.15 77.83 214.37
  Q 63.12 225.80 58.74 228.44
  Q 55.12 230.63 50.11 230.73
  Q 50.03 230.73 49.44 230.85
  Q 48.64 231.00 48.15 229.79
  L 49.10 230.07
  A 0.59 0.59 0.0 0 0 49.84 229.65
  C 50.68 226.26 53.18 223.41 55.78 219.37
  A 3.29 3.23 -5.8 0 1 56.36 218.67
  Q 61.56 213.85 65.40 207.93
  Q 66.99 205.49 72.60 201.74
  L 60.43 216.95
  A 1.11 1.11 0.0 0 0 61.86 218.60
  Q 64.86 216.85 67.48 214.78
  Q 69.87 212.89 72.49 210.17
  Q 79.50 202.90 87.09 195.59
  Q 87.78 194.92 88.87 193.24
  A 0.86 0.85 -59.3 0 1 89.99 192.95
  Q 108.55 202.83 128.04 194.48
  Q 133.73 194.54 150.95 195.72
  Q 164.25 196.63 182.19 194.16
  Z"
/>
</g>
<g>
<path fill="#fcf1bd" d="
  M 118.33 42.40
  Q 118.60 43.90 117.25 44.08
  Q 112.00 44.78 105.37 46.46
  C 101.59 47.42 96.82 49.48 92.24 51.47
  Q 85.89 54.23 78.68 59.41
  Q 78.35 59.65 77.72 59.80
  Q 77.27 59.65 77.10 59.44
  A 0.57 0.56 52.4 0 1 77.20 58.62
  Q 95.87 45.04 118.33 42.40
  Z"
/>
<path fill="#f7d21c" d="
  M 77.72 59.80
  Q 78.35 59.65 78.68 59.41
  Q 85.89 54.23 92.24 51.47
  C 96.82 49.48 101.59 47.42 105.37 46.46
  Q 112.00 44.78 117.25 44.08
  Q 118.60 43.90 118.33 42.40
  L 123.23 60.91
  A 0.48 0.48 0.0 0 1 122.89 61.49
  Q 108.71 65.30 98.65 75.73
  A 0.68 0.67 41.1 0 1 97.73 75.79
  L 77.72 59.80
  Z"
/>
<path fill="#fcf1bd" d="
  M 94.44 81.73
  L 74.19 65.26
  A 1.62 1.62 0.0 0 0 72.09 65.31
  Q 59.79 76.17 52.06 91.34
  Q 50.94 93.55 48.47 99.15
  A 0.45 0.44 -79.7 0 1 48.10 99.41
  Q 47.53 99.47 47.37 98.95
  Q 55.35 77.57 72.51 62.42
  A 0.44 0.44 0.0 0 1 73.08 62.41
  Q 83.59 71.08 94.38 79.63
  Q 94.93 80.07 95.18 80.70
  Q 95.36 81.15 94.44 81.73
  Z"
/>
<path fill="#f1bb21" d="
  M 94.44 81.73
  Q 87.41 92.28 86.13 105.07
  A 0.59 0.59 0.0 0 1 85.31 105.56
  C 84.43 105.19 82.92 104.80 82.20 104.74
  Q 65.78 103.40 64.10 103.19
  Q 62.44 102.97 57.39 102.86
  Q 53.93 102.78 50.71 101.99
  A 2.16 2.04 44.1 0 0 49.74 101.98
  Q 48.63 102.23 47.02 101.89
  A 0.51 0.51 0.0 0 1 46.64 101.24
  L 47.37 98.95
  Q 47.53 99.47 48.10 99.41
  A 0.45 0.44 -79.7 0 0 48.47 99.15
  Q 50.94 93.55 52.06 91.34
  Q 59.79 76.17 72.09 65.31
  A 1.62 1.62 0.0 0 1 74.19 65.26
  L 94.44 81.73
  Z"
/>
</g>
</svg>
